mtllib materials.mtl
v 0.5000001 -0.5 0.5000001
v -0.5000001 -0.5000002 0.4999999
v 1.000001 -0.99 1.010001
v 0.5000002 -0.4999999 -0.5000001
v 0.5000001 0.5000002 -0.4999999
v 0.9700012 -0.9899999 -0.9900012
v 0.9700007 -0.9899999 -0.9900007
v 0.4999999 0.5 0.5000002
v -0.5000002 0.4999998 0.5000001
v 0.9900002 1.01 1.000001
v 0.9900005 1.01 1.000001
v -0.4999999 -0.5 -0.5000002
v -0.9900007 -0.9900002 1.020001
v -0.5000001 0.5 -0.5000001
v -1.000001 1.01 -0.9900014
v 0.9900007 1.01 -1.000001
v -1.010001 1.01 1.040001
v -1.010001 -0.99 -0.9800012
v 1.000001 -0.99 1.010001
v -0.9900005 -0.9900002 1.02
v -1.010001 -0.99 -0.9800009
v -1.010001 1.01 1.040002
v 0.990001 1.01 -1.000001
v 0.970001 -0.9899999 -0.990001
v 0.990001 1.01 -1.000001
v -1.010001 -0.99 -0.9800012
v -1.000001 1.01 -0.9900016
v -0.990001 -0.9900002 1.020001
v 0.9900005 1.01 1.000001
v -1.010001 1.01 1.040002
v -1.000001 1.01 -0.9900016
v 1.000001 -0.99 1.010001
vn 1.984252E-07 -0.7211052 -0.6928257
vn 0.7216817 4.770817E-08 0.6922252
vn 0.7216814 0.6922254 1.644694E-07
vn 4.56259E-08 -0.700072 0.7140723
vn -0.7142131 -2.166049E-07 0.6999284
vn 0.7071064 -0.7071072 -2.829686E-08
vn -0.7140723 -0.7000721 -2.192124E-07
vn 1.665121E-07 -0.6928269 -0.721104
vn 0.7211044 -0.6928264 -4.262551E-08
vn -7.475882E-08 1 1.751392E-07
vn -3.173703E-08 0.7071071 -0.7071065
vn -0.6928253 0.7211055 4.699686E-08
vn -2.256635E-07 0.7211049 0.692826
vn 1.077331E-07 -1 -8.431832E-08
vn 0.6853644 2.678541E-07 -0.7282004
vn 0.7071063 0.7071074 2.196301E-07
vn 0.727789 -4.605408E-09 0.6858012
vn -0.999899 -0.01009918 0.009999122
vn -0.7211042 0.6928266 -5.214656E-08
vn -0.714213 -2.804133E-08 -0.6999285
vn -0.7216813 -0.6922255 -2.461466E-07
vn 0.99995 -0.009999493 2.390422E-07
vn -2.242193E-07 0.7000722 0.7140721
vn -0.6853644 -2.298605E-07 0.7282004
vn 6.472406E-08 -0.6997805 0.714358
vn -0.005024691 -0.004975018 -0.999975
vn -0.7277889 -2.262565E-08 -0.6858013
vn -2.559675E-08 0.7000721 -0.7140722
vn 0.7140729 2.606109E-07 -0.7000714
vn 0.01999583 0.005098765 0.999787
vn -0.7089486 -0.7052516 -0.003492441
vn 0.7211045 -0.6928263 8.751475E-08
vn 0.7141768 7.134977E-05 -0.6999654
vn -0.7272056 -0.0004076933 -0.6864197
vn -0.01386913 0.7203725 -0.6934487
vn 0.7160773 -0.00367069 0.6980114
vn -0.6962236 0.007070244 0.7177902
vn -0.003596684 -0.6983032 -0.7157931
vn -3.731775E-08 1 1.15241E-07
vn -0.7033471 0.7108119 0.007033819
vn 0.7053733 0.7087571 -0.01058054
vn -0.003454773 -0.7261583 -0.687519
vn 0.005024746 -0.009949424 0.9999379
vn 0.7272055 0.0004077322 0.6864197
vn 0.6962235 -0.007070242 -0.7177904
vn 0.0138691 -0.7203723 0.693449
vn 0.003579957 -0.705384 0.7088164
vn -0.005050399 -0.004949308 -0.999975
vn 0.003614451 0.694663 0.7193263
vn 0.7123801 0.7017851 0.003509345
vn -0.9999755 0.004975125 -0.004925918
vn 0.003454738 0.7261579 0.6875193
vn -0.003598261 0.7016846 -0.7124786
vn 0.6962084 -0.7178061 -0.006962253
vn -0.719812 0.003727308 -0.6941591
vn -0.7141068 -7.066425E-05 0.7000369
vn -0.7053732 -0.7087572 0.01058053
vn 0.9998754 0.004924589 -0.01499805
vt 0.08747511 0.006748998
vt 0.0357771 -0.07885076
vt 0.1738645 0.0129856
vt -0.07837986 0.03941805
vt 0.01011133 0.08599388
vt -0.1533642 0.07667886
vt -0.08686838 0.01239472
vt -0.01885061 0.08569947
vt -0.0352936 0.1678009
vt 0.06416927 0.05815794
vt 0.07480954 -0.04127438
vt 0.1299714 0.1144793
vt -0.08724856 0.009362119
vt -0.02077812 0.08407277
vt -0.03918108 0.1687093
vt 0.02482114 -0.08296935
vt -0.06995054 -0.05105805
vt 0.05198909 -0.1652367
vt -0.01533868 -0.08406102
vt -0.08461063 -0.01194029
vt -0.1700636 -0.026076
vt -0.0852475 -0.005516113
vt -0.03329679 0.07993051
vt -0.171655 -0.0114974
vt -0.02466137 0.08298085
vt 0.07004343 0.05087162
vt -0.04930467 0.1660153
vt -0.1278079 0.06054055
vt -0.06430757 -0.1291533
vt 0.1265299 -0.05993517
vt 0.07618184 0.04356406
vt 0.06613152 -0.05592963
vt 0.1498512 0.0833616
vt 0.06983768 -0.05115371
vt -0.02499585 -0.08288071
vt 0.1377967 -0.1029957
vt -0.0357771 -0.07885076
vt -0.08747511 0.006748994
vt -0.1738644 0.01298557
vt 0.129086 0.06114598
vt -0.06027152 0.1255881
vt -0.1259245 -0.06121332
vt 0.06309674 -0.1265971
vt -0.01483883 -0.08528668
vt -0.08434805 -0.01339461
vt -0.03112953 -0.1691952
vt 0.08442317 -0.01321851
vt 0.01407046 -0.08428536
vt 0.02733683 -0.1734034
vt 0.07603297 -0.03897574
vt -0.01237205 -0.08571496
vt -0.02229561 -0.171782
vt -0.02518049 -0.1391761
vt 0.1380082 -0.02353219
vt -0.1424398 0.02286791
vt -0.07004343 0.05087162
vt 0.02466137 0.08298085
vt 0.04930469 0.1660154
vt -0.1401051 0.1017968
vt -0.01028941 0.08598889
vt 0.07830293 0.03960571
vt -0.02299988 0.1716654
vt 0.01885061 0.08569947
vt 0.08686838 0.01239473
vt 0.03529358 0.1678009
vt 0.1398454 0.02536238
vt -0.02397682 0.1400897
vt -0.1378906 -0.02431424
vt 0.03336611 0.07991711
vt 0.08525886 -0.005564732
vt 0.06899091 0.1588658
vt 0.08434804 -0.01339461
vt 0.01483883 -0.08528668
vt 0.03112956 -0.1691952
vt -0.06578834 -0.05633732
vt -0.0764529 0.0430924
vt -0.1285513 -0.1143618
vt -0.04484682 0.1348639
vt -0.1339649 -0.04306879
vt 0.04441158 -0.1335333
vt 0.01237205 -0.08571495
vt -0.07603296 -0.03897574
vt 0.02229559 -0.171782
vt -0.07480953 -0.04127438
vt -0.06416926 0.05815794
vt -0.1299714 0.1144793
vt 0.02076022 0.08407743
vt 0.08724675 0.009381106
vt 0.1731743 0.02026554
vt -0.1341067 0.04374469
vt 0.1345534 -0.04698493
vt 0.04534298 0.1320613
vt -0.1699055 -0.02709592
vt -0.02891254 -0.1731476
vt -0.01483631 -0.08415394
vt 0.07004343 0.05087162
vt 0.1401051 0.1017968
vt -0.04930466 0.1660153
vt 0.1731761 0.02024946
vt 0.03916029 0.1687142
vt 0.02076783 0.08407532
vt -0.07602064 -0.03900246
vt -0.1558093 -0.08085701
vt 0.02235328 -0.1717751
vt -0.1320031 0.1121317
vt -0.1525494 -0.08685055
vt -0.07405943 -0.04260866
vt 0.0101293 0.08600771
vt 0.02267382 0.1717087
vt -0.1533483 0.07672857
vt 0.03480671 -0.1684948
vt 0.1706702 -0.02171903
vt 0.08465113 -0.01158224
vt -0.03333447 0.0799305
vt -0.06893348 0.1588908
vt -0.1716588 -0.01154856
vt 0.1265299 -0.05993517
vt 0.06054061 0.1278079
vt -0.1278079 0.06054054
vt -0.02505067 -0.08289997
vt -0.05243438 -0.1650957
vt 0.1377296 -0.1031142
vt -0.02653067 0.1694127
vt -0.1714777 0.03157431
vt -0.08611594 0.01689834
vt 0.03580143 -0.07881792
vt 0.07166399 -0.1576842
vt 0.1738475 0.01308055
vt -0.133314 0.04608624
vt -0.04494707 -0.1322207
vt 0.1351549 -0.04520756
vt -0.0223533 -0.1717751
vt 0.1558093 -0.08085701
vt 0.07602064 -0.03900246
vt -0.08465113 -0.01158224
vt -0.1706702 -0.02171905
vt -0.03480667 -0.1684948
vt 0.07405944 -0.04260864
vt 0.1525494 -0.08685049
vt 0.1320031 0.1121317
vt -0.07623696 0.0434674
vt -0.1499553 0.08317413
vt -0.1291101 -0.1137283
vt 0.04441643 -0.1335316
vt 0.1330848 0.04350795
vt -0.04484486 0.1348646
vt 0.08524801 -0.005508855
vt 0.1716553 -0.01149223
vt 0.06886949 0.1589107
vt 0.03020094 -0.1729262
vt 0.1701014 -0.0258277
vt 0.0846277 -0.01181821
vt 0.1378029 -0.02485597
vt 0.02207689 0.1382682
vt -0.1428999 0.01997712
vt -0.1738474 0.01308053
vt -0.07166399 -0.1576842
vt -0.03580143 -0.07881793
vt 0.06589098 -0.05621726
vt 0.1287596 -0.1141272
vt 0.1502136 0.08270977
vt -0.06974502 -0.05127921
vt -0.1376248 -0.1032248
vt 0.05259805 -0.1650255
vt 0.07841076 0.03935666
vt 0.1534285 0.07655008
vt -0.02248826 0.1717251
vt -0.03914236 0.1687184
vt -0.173174 0.02026805
vt -0.08724663 0.009382324
vt 0.08611593 0.01689836
vt 0.1714777 0.03157434
vt 0.02653063 0.1694127
vt -0.1373557 -0.0272281
vt 0.02719749 -0.1409441
vt 0.1400671 0.02416934
o group1246340207
g mesh1246340207
usemtl mat24
f 3/3/1 2/2/1 1/1/1
f 6/6/2 5/5/2 4/4/2
f 7/9/3 4/8/3 1/7/3
f 10/12/4 9/11/4 8/10/4
f 11/15/5 8/14/5 1/13/5
f 13/18/6 12/17/6 2/16/6
f 15/21/7 14/20/7 9/19/7
f 15/24/8 5/23/8 14/22/8
f 16/27/9 8/26/9 5/25/9
f 15/30/10 17/29/10 10/28/10
f 7/33/11 12/32/11 4/31/11
f 18/36/12 2/35/12 12/34/12
f 19/39/13 1/38/13 2/37/13
f 20/43/14 18/42/14 7/41/14 19/40/14
f 21/46/15 14/45/15 12/44/15
f 22/49/16 9/48/16 14/47/16
f 13/52/17 2/51/17 9/50/17
f 22/55/18 21/54/18 13/53/18
f 11/59/19 23/58/19 5/57/19 8/56/19
f 23/62/20 4/61/20 5/60/20
f 24/65/21 1/64/21 4/63/21
f 24/68/22 23/67/22 11/66/22
f 25/71/23 14/70/23 5/69/23
f 26/74/24 12/73/24 14/72/24
f 26/77/25 4/76/25 12/75/25
f 26/80/26 27/79/26 25/78/26
f 28/83/27 9/82/27 2/81/27
f 29/86/28 8/85/28 9/84/28
f 3/89/29 1/88/29 8/87/29
f 29/92/30 30/91/30 3/90/30
f 9/95/31 17/94/31 15/93/31
f 16/98/32 10/97/32 8/96/32
f 8/101/33 29/100/33 3/99/33
f 28/104/34 30/103/34 9/102/34
f 9/107/35 30/106/35 29/105/35
f 6/110/36 25/109/36 5/108/36
f 14/113/37 27/112/37 26/111/37
f 15/116/38 16/115/38 5/114/38
f 10/119/39 16/118/39 15/117/39
f 18/122/40 20/121/40 2/120/40
f 1/125/41 19/124/41 7/123/41
f 3/128/42 28/127/42 2/126/42
f 30/131/43 28/130/43 3/129/43
f 9/134/44 22/133/44 13/132/44
f 21/137/45 31/136/45 14/135/45
f 10/140/46 17/139/46 9/138/46
f 26/143/47 6/142/47 4/141/47
f 25/146/48 6/145/48 26/144/48
f 25/149/49 27/148/49 14/147/49
f 14/152/50 31/151/50 22/150/50
f 22/155/51 31/154/51 21/153/51
f 2/158/52 20/157/52 19/156/52
f 7/161/53 18/160/53 12/159/53
f 13/164/54 21/163/54 12/162/54
f 23/167/55 24/166/55 4/165/55
f 1/170/56 32/169/56 11/168/56
f 24/173/57 32/172/57 1/171/57
f 11/176/58 32/175/58 24/174/58
